"╬ù ╬ñ╬╢╬┐╧ì╬╗╬╣╬▒ ╬₧╬▒╬╜╬▒╧ç╧ä╧à╧Ç╬¼"


Format                                   : Matroska
Format version                           : Version 2
File size                                : 656 MiB
Duration                                 : 1h 34mn
Overall bit rate                         : 973 Kbps
Writing application                      : Lavf52.93.0
Writing library                          : Lavf52.93.0
DURATION                                 : 5660
LASTTIMESTAMP                            : 5660
DATASIZE                                 : 597220545
METADATACREATOR                          : FlixEngineLinux_8.0.16.1 (www.on2.com)
CANSEEKTOEND                             : true
VIDEOCODECID                             : 4
WIDTH                                    : 624
HEIGHT                                   : 352
VIDEODATARATE                            : 762
FRAMERATE                                : 25
VIDEOSIZE                                : 551939057
AUDIOCODECID                             : 2
AUDIODATARATE                            : 63
AUDIOSIZE                                : 45281488

Video
ID                                       : 1
Format                                   : AVC
Format/Info                              : Advanced Video Codec
Format profile                           : High@L3.0
Format settings, CABAC                   : Yes
Format settings, ReFrames                : 3 frames
Codec ID                                 : V_MPEG4/ISO/AVC
Duration                                 : 1h 34mn
Bit rate                                 : 844 Kbps
Width                                    : 624 pixels
Height                                   : 352 pixels
Display aspect ratio                     : 16:9
Frame rate mode                          : Variable
Frame rate                               : 29.970 fps
Color space                              : YUV
Chroma subsampling                       : 4:2:0
Bit depth                                : 8 bits
Scan type                                : Progressive
Bits/(Pixel*Frame)                       : 0.128
Stream size                              : 557 MiB (85%)
Writing library                          : x264 core 112
Encoding settings                        : cabac=1 / ref=3 / deblock=1:0:0 / analyse=0x3:0x113 / me=hex / subme=7 / psy=1 / psy_rd=1.00:0.00 / mixed_ref=1 / me_range=16 / chroma_me=1 / trellis=1 / 8x8dct=1 / cqm=0 / deadzone=21,11 / fast_pskip=1 / chroma_qp_offset=-2 / threads=1 / sliced_threads=0 / nr=0 / decimate=1 / interlaced=0 / constrained_intra=0 / bframes=3 / b_pyramid=0 / b_adapt=1 / b_bias=0 / direct=1 / weightb=1 / open_gop=0 / weightp=2 / keyint=250 / keyint_min=25 / scenecut=40 / intra_refresh=0 / rc_lookahead=40 / rc=abr / mbtree=1 / bitrate=844 / ratetol=1.0 / qcomp=0.60 / qpmin=10 / qpmax=51 / qpstep=4 / ip_ratio=1.41 / aq=1:1.00
Language                                 : English

Audio
ID                                       : 2
Format                                   : MPEG Audio
Format version                           : Version 1
Format profile                           : Layer 2
Codec ID                                 : A_MPEG/L2
Codec ID/Hint                            : MP2
Duration                                 : 1h 34mn
Bit rate mode                            : Constant
Bit rate                                 : 128 Kbps
Channel(s)                               : 2 channels
Sampling rate                            : 48.0 KHz
Compression mode                         : Lossy
Stream size                              : 86.4 MiB (13%)
Language                                 : English
